<svg id="Layer_1" data-name="Layer 1" xmlns="http://www.w3.org/2000/svg" viewBox="0 0 62 62"><defs><style>.cls-1{fill:#fff;}.cls-2{fill:#dd1b1b;}.cls-3{fill:none;stroke:#dd1b1b;stroke-miterlimit:10;stroke-width:6px;}</style></defs><title>larangan</title><circle class="cls-1" cx="31" cy="31" r="31"/><path class="cls-2" d="M31,9.38A21.63,21.63,0,1,1,9.38,31,21.65,21.65,0,0,1,31,9.38m0-6A27.63,27.63,0,1,0,58.63,31,27.62,27.62,0,0,0,31,3.38Z"/><path d="M37.31,30.43a8.21,8.21,0,0,1-.16-1.15c0-3.39,0-6.77,0-10.16,0-1.49-.68-2.32-1.89-2.33s-2,.76-2,2.33c0,3,0,6,0,9.05a8.28,8.28,0,0,1-.14,1.09l-.37,0a7.85,7.85,0,0,1-.17-1.15q0-5.8,0-11.59c0-.89-.09-1.82-1-2.18a3.65,3.65,0,0,0-2.27-.15c-1,.29-1.25,1.26-1.25,2.24q0,4.75,0,9.49c0,.81,0,1.62,0,2.43a7.71,7.71,0,0,1-.12.9l-.34,0a7.62,7.62,0,0,1-.18-1.15c0-2.58,0-5.15,0-7.73a2.22,2.22,0,0,0-2.19-2.49A2.26,2.26,0,0,0,23,20.46c0,4.34,0,8.68-.25,13.21a11.81,11.81,0,0,1-.89-1c-1.19-1.73-2.55-3.22-4.71-3.74-.83-.2-1.67-.36-2.16.51a2.15,2.15,0,0,0,.37,2.45c1.11,1.49,2.22,3,3.25,4.54,1.42,2.14,2.74,4.35,4.14,6.51a10,10,0,0,0,8.13,4.58,16.52,16.52,0,0,0,4.49-.32C39,46.4,41,43.94,41.53,40.09a25.37,25.37,0,0,0,.2-3.08q0-6.84,0-13.69c0-1.87-1.62-2.95-3-1.93a2.89,2.89,0,0,0-.93,2c-.12,2,0,4,0,6q0,.53,0,1.05Z"/><line class="cls-3" x1="12.2" y1="12.2" x2="49.76" y2="49.76"/></svg>