<svg id="Layer_1" data-name="Layer 1" xmlns="http://www.w3.org/2000/svg" viewBox="0 0 62 62"><defs><style>.cls-1{fill:#fff;}.cls-2{fill:#0c4fba;}</style></defs><title>perintah</title><circle class="cls-1" cx="31" cy="31" r="31"/><path class="cls-2" d="M31,2.88A28.13,28.13,0,1,0,59.13,31,28.16,28.16,0,0,0,31,2.88Z"/><path class="cls-2" d="M31,57.63A26.63,26.63,0,1,1,57.63,31,26.66,26.66,0,0,1,31,57.63Z"/><path class="cls-1" d="M31,5.38A25.63,25.63,0,1,1,5.38,31,25.65,25.65,0,0,1,31,5.38m0-2A27.63,27.63,0,1,0,58.63,31,27.62,27.62,0,0,0,31,3.38Z"/><polygon class="cls-1" points="13.3 33.71 23.92 21.88 29.46 27.42 17.63 38.04 13.3 33.71"/><polygon class="cls-1" points="16.18 35.17 13.11 27.39 11.23 40.12 23.95 38.23 16.18 35.17"/><polygon class="cls-1" points="48.7 33.71 38.08 21.88 32.54 27.42 44.37 38.04 48.7 33.71"/><polygon class="cls-1" points="45.82 35.17 48.89 27.39 50.77 40.12 38.05 38.23 45.82 35.17"/></svg>