<svg id="Layer_1" data-name="Layer 1" xmlns="http://www.w3.org/2000/svg" viewBox="0 0 50 64.49"><defs><style>.cls-1{fill:#e52525;}.cls-2{fill:#a8111c;}.cls-3{fill:#fff;}.cls-4{fill:#dd1b1b;}</style></defs><title>larangan</title><path class="cls-1" d="M25,31.35H15.09s1,4,2.28,8.14c2.13,6.86,7.62,25,7.62,25s5.5-18.15,7.62-25c1.27-4.09,2.28-8.14,2.28-8.14Z"/><path class="cls-1" d="M25,0A25,25,0,1,0,50,25,25,25,0,0,0,25,0Z"/><path class="cls-2" d="M25,3A22,22,0,1,0,47,25,22,22,0,0,0,25,3Z"/><circle class="cls-3" cx="25" cy="25" r="22"/><path class="cls-4" d="M25,9.66A15.35,15.35,0,1,1,9.66,25s0,0,0,0A15.36,15.36,0,0,1,25,9.66M25,5.4A19.61,19.61,0,1,0,44.61,25h0A19.6,19.6,0,0,0,25,5.4Z"/><path d="M29.48,24.6a5.83,5.83,0,0,1-.11-.82V16.57c0-1.06-.48-1.65-1.34-1.65s-1.42.54-1.42,1.65V23a5.88,5.88,0,0,1-.1.77h-.26a5.57,5.57,0,0,1-.12-.82V14.72c0-.63-.06-1.29-.71-1.55a2.59,2.59,0,0,0-1.61-.11c-.71.21-.89.89-.89,1.59v8.46a5.47,5.47,0,0,1-.09.64h-.24a5.41,5.41,0,0,1-.13-.82V17.46a1.58,1.58,0,0,0-1.37-1.76h-.18a1.6,1.6,0,0,0-1.58,1.83c0,3.08,0,6.16-.18,9.37a8.38,8.38,0,0,1-.63-.71,5.72,5.72,0,0,0-3.34-2.65c-.59-.14-1.19-.26-1.53.36a1.53,1.53,0,0,0,.26,1.74c.79,1.06,1.58,2.13,2.31,3.22,1,1.52,1.94,3.09,2.94,4.62a7.1,7.1,0,0,0,5.77,3.25,11.72,11.72,0,0,0,3.19-.23c2.58-.57,4-2.31,4.37-5a18,18,0,0,0,.14-2.19V19.55c0-1.33-1.15-2.09-2.13-1.37a2.05,2.05,0,0,0-.66,1.42c-.09,1.42,0,2.84,0,4.26v.75Z"/><rect class="cls-4" x="22.86" y="6.14" width="4.26" height="37.7" transform="translate(-10.35 24.99) rotate(-45)"/></svg>