<svg id="Layer_1" data-name="Layer 1" xmlns="http://www.w3.org/2000/svg" viewBox="0 0 50 64.49"><defs><style>.cls-1{fill:#e52525;}.cls-2{fill:#a8111c;}.cls-3{fill:#fff;}.cls-4{fill:#f7d900;}</style></defs><title>peringatan</title><path class="cls-1" d="M25,31.35H15.09s1,4,2.28,8.14c2.13,6.86,7.62,25,7.62,25s5.5-18.15,7.62-25c1.27-4.09,2.28-8.14,2.28-8.14Z"/><path class="cls-1" d="M25,0A25,25,0,1,0,50,25,25,25,0,0,0,25,0Z"/><path class="cls-2" d="M25,3A22,22,0,1,0,47,25,22,22,0,0,0,25,3Z"/><circle class="cls-3" cx="25" cy="25" r="22"/><rect class="cls-4" x="12.4" y="12.4" width="25.19" height="25.19" rx="1.75" ry="1.75" transform="translate(-10.36 25) rotate(-45)"/><path d="M25,43a2.63,2.63,0,0,1-1.86-.77L7.79,26.86a2.63,2.63,0,0,1,0-3.72L23.14,7.79a2.64,2.64,0,0,1,3.72,0L42.21,23.14a2.63,2.63,0,0,1,0,3.72L26.86,42.21A2.63,2.63,0,0,1,25,43ZM25,8.8a.86.86,0,0,0-.61.25L9,24.39a.86.86,0,0,0,0,1.21L24.39,41a.86.86,0,0,0,1.21,0L41,25.61a.86.86,0,0,0,0-1.21L25.61,9A.86.86,0,0,0,25,8.8Z"/><path d="M25,29.09h0a1,1,0,0,1-1.06-.94L23.4,16.73a1,1,0,0,1,1-1h1.13a1,1,0,0,1,1.06,1s0,0,0,0l-.55,11.42A1,1,0,0,1,25,29.09Z"/><circle cx="25" cy="32.65" r="1.65"/></svg>