<?xml version="1.0" encoding="utf-8"?>
<!-- Generator: Adobe Illustrator 21.0.0, SVG Export Plug-In . SVG Version: 6.00 Build 0)  -->
<svg version="1.1" id="Layer_1" xmlns="http://www.w3.org/2000/svg" xmlns:xlink="http://www.w3.org/1999/xlink" x="0px" y="0px"
	 viewBox="0 0 50 64.5" style="enable-background:new 0 0 50 64.5;" xml:space="preserve">
<style type="text/css">
	.st0{fill:#E52525;}
	.st1{fill:#A8111C;}
	.st2{fill:#FFFFFF;}
	.st3{fill:#0C4FBA;}
</style>
<title>perintah</title>
<path class="st0" d="M25,31.4h-9.9c0,0,1,4,2.3,8.1c2.1,6.9,7.6,25,7.6,25s5.5-18.2,7.6-25c1.3-4.1,2.3-8.1,2.3-8.1L25,31.4z"/>
<path class="st0" d="M25,0C11.2,0,0,11.2,0,25s11.2,25,25,25s25-11.2,25-25S38.8,0,25,0z"/>
<path class="st1" d="M25,3C12.8,3,3,12.8,3,25s9.8,22,22,22s22-9.8,22-22S37.2,3,25,3z"/>
<circle class="st2" cx="25" cy="25" r="22"/>
<g>
	<path class="st3" d="M25,44.9C14,44.9,5.1,36,5.1,25S14,5.1,25,5.1S44.9,14,44.9,25S36,44.9,25,44.9C25,44.9,25,44.9,25,44.9z"/>
	<polygon class="st2" points="11.8,27 19.7,18.2 23.9,22.3 15,30.3 	"/>
	<polygon class="st2" points="13.9,28.1 11.6,22.3 10.2,31.8 19.7,30.4 	"/>
	<polygon class="st2" points="38.2,27 30.3,18.2 26.1,22.3 35,30.3 	"/>
	<polygon class="st2" points="36.1,28.1 38.4,22.3 39.8,31.8 30.3,30.4 	"/>
</g>
</svg>
