<svg id="Layer_1" data-name="Layer 1" xmlns="http://www.w3.org/2000/svg" viewBox="0 0 50 64.49"><defs><style>.cls-1{fill:#e52525;}.cls-2{fill:#a8111c;}.cls-3{fill:#fff;}.cls-4{fill:#009341;}.cls-5{isolation:isolate;}</style></defs><title>petunjuk</title><path class="cls-1" d="M25,31.35H15.09s1,4,2.28,8.14c2.13,6.86,7.62,25,7.62,25s5.5-18.15,7.62-25c1.27-4.09,2.28-8.14,2.28-8.14Z"/><path class="cls-1" d="M25,0A25,25,0,1,0,50,25,25,25,0,0,0,25,0Z"/><path class="cls-2" d="M25,3A22,22,0,1,0,47,25,22,22,0,0,0,25,3Z"/><circle class="cls-3" cx="25" cy="25" r="22"/><rect class="cls-4" x="7.79" y="14.09" width="34.42" height="21.82" rx="1.35" ry="1.35"/><path class="cls-3" d="M40.79,34.85H9.21a.35.35,0,0,1-.35-.35v-19a.35.35,0,0,1,.35-.35H40.79a.35.35,0,0,1,.35.35v19A.35.35,0,0,1,40.79,34.85ZM9.56,34.14H40.44V15.87H9.56Z"/><rect class="cls-3" x="12.84" y="19.49" width="2.43" height="13.36"/><polygon class="cls-3" points="14.06 17.16 11.31 20.95 16.8 20.95 14.06 17.16"/><rect class="cls-3" x="20.01" y="25.5" width="15.19" height="2.35"/><polygon class="cls-3" points="38.69 26.67 34.89 23.93 34.89 29.42 38.69 26.67"/><path class="cls-3" d="M13.08,32.51V20.84L23.2,26.67Zm2-8.26V29.1l4.21-2.43Z"/><g class="cls-5"><g class="cls-5"><path class="cls-3" d="M21.46,31.19c0-.23,0-.5,0-.77h0c-.06.24-.14.51-.21.72l-.23.73h-.33l-.2-.72c-.06-.22-.12-.49-.17-.73h0c0,.25,0,.54,0,.77l0,.71h-.39L20,30h.56l.18.62c.06.22.12.45.16.67h0c.05-.22.12-.46.18-.67l.2-.62h.55l.1,1.87h-.41Z"/></g><g class="cls-5"><path class="cls-3" d="M22.66,31.43l-.13.48h-.44L22.66,30h.56l.58,1.87h-.46l-.14-.48Zm.47-.32-.12-.4c0-.11-.07-.25-.09-.36h0c0,.11-.06.25-.09.36l-.11.4Z"/></g><g class="cls-5"><path class="cls-3" d="M25.54,31.82a2.09,2.09,0,0,1-.62.11,1,1,0,0,1-.76-.25.91.91,0,0,1-.26-.68A1,1,0,0,1,25,30a1.29,1.29,0,0,1,.52.09l-.09.34a1,1,0,0,0-.44-.08.61.61,0,0,0,0,1.22.56.56,0,0,0,.21,0v-.39h-.29v-.33h.7Z"/><path class="cls-3" d="M27,31.12H26.3v.44h.77v.35H25.87V30H27v.35H26.3v.39H27Z"/></g><g class="cls-5"><path class="cls-3" d="M27.36,30h.42v1.52h.74v.36H27.36Z"/></g><g class="cls-5"><path class="cls-3" d="M29.23,31.43l-.13.48h-.44L29.23,30h.56l.58,1.87h-.46l-.14-.48Zm.47-.32-.12-.4c0-.11-.07-.25-.09-.36h0c0,.11-.06.25-.09.36l-.11.4Z"/><path class="cls-3" d="M30.62,31.91V30h.49l.39.69a5.38,5.38,0,0,1,.31.64h0a7,7,0,0,1,0-.78V30h.39v1.87h-.44l-.4-.72a7,7,0,0,1-.33-.66h0c0,.25,0,.51,0,.82v.56Z"/><path class="cls-3" d="M34.1,31.82a2.09,2.09,0,0,1-.63.11,1,1,0,0,1-.76-.25.91.91,0,0,1-.26-.68,1,1,0,0,1,1.07-1,1.29,1.29,0,0,1,.52.09l-.09.34a1.05,1.05,0,0,0-.44-.08.61.61,0,0,0,0,1.22.56.56,0,0,0,.21,0v-.39h-.29v-.33h.7Z"/></g></g></svg>