<svg id="Layer_1" data-name="Layer 1" xmlns="http://www.w3.org/2000/svg" viewBox="0 0 50 64.51"><defs><style>.cls-1{fill:#e52525;}.cls-2{fill:#a8111c;}.cls-3{fill:#fff;}.cls-4{fill:#384d66;}</style></defs><title>guardrail</title><path class="cls-1" d="M21.5,20.59H11.59s1,4.05,2.28,8.14c2.13,6.86,7.62,25,7.62,25s5.5-18.15,7.62-25c1.27-4.09,2.28-8.14,2.28-8.14Z" transform="translate(3.5 10.76)"/><path class="cls-1" d="M21.5-10.76a25,25,0,1,0,25,25A25,25,0,0,0,21.5-10.76Z" transform="translate(3.5 10.76)"/><path class="cls-2" d="M21.5-7.76a22,22,0,1,0,22,22A22,22,0,0,0,21.5-7.76Z" transform="translate(3.5 10.76)"/><circle class="cls-3" cx="25" cy="25" r="22"/><path class="cls-4" d="M37.82,22.13V4.92A3.83,3.83,0,0,0,34,1.09H9A3.83,3.83,0,0,0,5.18,4.92V22.13H10v1.92H5.18V26H16.72V24.05H11.9V22.13H31.07v1.92H26.28V26H37.82V24.05H33V22.13ZM7.09,4.92A1.92,1.92,0,0,1,9,3H34a1.92,1.92,0,0,1,1.92,1.92h0v1H7.09Zm24,2.93v7.56H29.18V7.85Zm-8.64,0v7.56H20.54V7.85Zm-8.64,0v7.56H11.9V7.85ZM7.09,20.22V7.85H10v9.47h5.74V7.85h2.92v9.47h5.68V7.85h2.9v9.47H33V7.85h2.92V20.22Z" transform="translate(3.5 10.76)"/></svg>