<svg id="Layer_1" data-name="Layer 1" xmlns="http://www.w3.org/2000/svg" viewBox="0 0 50 64.49"><defs><style>.cls-1{fill:#e52525;}.cls-2{fill:#a8111c;}.cls-3{fill:#fff;}.cls-4{fill:#005dba;}.cls-5{fill:#f9d315;}.cls-6,.cls-8,.cls-9{fill:#ea2424;}.cls-7,.cls-8,.cls-9{isolation:isolate;}.cls-8,.cls-9{font-size:4.35px;font-family:MyriadPro-Bold, Myriad Pro;font-weight:700;}.cls-9{letter-spacing:-0.1em;}</style></defs><title>halte</title><path class="cls-1" d="M25,31.35H15.09s1,4,2.28,8.14c2.13,6.86,7.62,25,7.62,25s5.5-18.15,7.62-25c1.27-4.09,2.28-8.14,2.28-8.14Z"/><path class="cls-1" d="M25,0A25,25,0,1,0,50,25,25,25,0,0,0,25,0Z"/><path class="cls-2" d="M25,3A22,22,0,1,0,47,25,22,22,0,0,0,25,3Z"/><circle class="cls-3" cx="25" cy="25" r="22"/><g id="_006---Bus-Stop" data-name=" 006---Bus-Stop"><path id="Shape" class="cls-4" d="M40.54,14.81H33.06V8.75A1.72,1.72,0,0,0,31.34,7H18.67a1.72,1.72,0,0,0-1.73,1.72h0v6.06H9.46a1.73,1.73,0,0,0,0,3.46H10V38.41a1.72,1.72,0,0,0,1.72,1.72h.57a1.72,1.72,0,0,0,1.72-1.72h0v-.57H35.94v.57a1.72,1.72,0,0,0,1.72,1.72h.57A1.72,1.72,0,0,0,40,38.41h0V18.27h.57a1.73,1.73,0,1,0,0-3.46ZM18.09,8.75a.57.57,0,0,1,.57-.57H31.33a.57.57,0,0,1,.57.57h0v6.06H18.09ZM28.46,35.53v1.15H21.54V35.53Zm-2-9.2.17-.17a.6.6,0,1,0-.88-.82l-1,1h-2a2.84,2.84,0,0,0-1.15.24V21.72h6.91v4.61ZM14.06,21.72h6.33V27.5a2.84,2.84,0,0,0-.57,1.71v3a1.72,1.72,0,0,0,.57,3.35v1.15H14.06Zm15.54,15V35.53h4a1.72,1.72,0,0,0,.59-3.34v-3a2.84,2.84,0,0,0-.71-1.9l1.14-1.14a.58.58,0,1,0-.82-.82L32.59,26.6a2.84,2.84,0,0,0-1.21-.28H29.61V21.72h6.33v15Z"/><path id="Shape-2" class="cls-4" d="M15.77,25.75a.57.57,0,0,0,.4-.17l1.72-1.73a.58.58,0,1,0-.82-.82l-1.72,1.72a.57.57,0,0,0,.41,1Z"/><path id="Shape-3" class="cls-4" d="M24.6,23l-1.72,1.72a.58.58,0,1,0,.82.82l1.72-1.72A.58.58,0,0,0,24.6,23Z"/><path id="Shape-4" class="cls-4" d="M32.65,23l-1.72,1.72a.58.58,0,1,0,.82.82l1.72-1.72a.58.58,0,1,0-.82-.82Z"/><path id="Shape-5" class="cls-4" d="M19.07,25.34a.57.57,0,0,0-.81,0h0l-2.88,2.88a.58.58,0,1,0,.82.82l2.88-2.88a.57.57,0,0,0,0-.81Z"/></g><rect class="cls-5" x="14.06" y="18.27" width="21.87" height="2.3"/><path class="cls-5" d="M12.94,38.41a.57.57,0,0,1-.57.57h-.57a.57.57,0,0,1-.57-.57h0V18.27h1.72Z"/><path class="cls-5" d="M38.82,38.41a.57.57,0,0,1-.57.57h-.57a.57.57,0,0,1-.6-.55s0,0,0,0V18.27h1.72Z"/><path class="cls-6" d="M33.06,29.2v2.9H21V29.2a1.72,1.72,0,0,1,1.72-1.72h8.61a1.72,1.72,0,0,1,1.73,1.72Z"/><path class="cls-5" d="M20.39,34.38a.57.57,0,0,1,0-1.15H33.64a.57.57,0,0,1,0,1.15Z"/><path class="cls-5" d="M40.54,17.12H9.46a.57.57,0,1,1,0-1.15H40.54a.57.57,0,1,1,0,1.15Z"/><g class="cls-7"><text class="cls-8" transform="translate(18.83 13.04)">HA</text><text class="cls-9" transform="translate(24.69 13.04)">L</text><text class="cls-8" transform="translate(26.46 13.04)">TE</text></g></svg>