<svg id="Layer_1" data-name="Layer 1" xmlns="http://www.w3.org/2000/svg" viewBox="0 0 50 64.49"><defs><style>.cls-1{fill:#e52525;}.cls-2{fill:#a8111c;}.cls-3{fill:#fff;}.cls-4{fill:#ffc306;}.cls-5{fill:#3a3a3a;}</style></defs><title>lampu</title><path class="cls-1" d="M25,31.35H15.09s1,4,2.28,8.14c2.13,6.86,7.62,25,7.62,25s5.5-18.15,7.62-25c1.27-4.09,2.28-8.14,2.28-8.14Z"/><path class="cls-1" d="M25,0A25,25,0,1,0,50,25,25,25,0,0,0,25,0Z"/><path class="cls-2" d="M25,3A22,22,0,1,0,47,25,22,22,0,0,0,25,3Z"/><circle class="cls-3" cx="25" cy="25" r="22"/><path class="cls-4" d="M36.94,18.51h3.73v1.84H36.94Z"/><path class="cls-4" d="M9.33,18.51h3.73v1.84H9.33Z"/><path class="cls-4" d="M39,26.44,38.06,28l-3.18-1.84.92-1.59Z"/><path class="cls-4" d="M14.21,14.25,11,12.42l.92-1.59,3.18,1.84Z"/><path class="cls-4" d="M34.88,12.66l3.18-1.84L39,12.42l-3.18,1.84Z"/><path class="cls-4" d="M11.94,28,11,26.44,14.2,24.6l.92,1.59Z"/><path class="cls-5" d="M22.84,9.56a10.1,10.1,0,0,0-2.43,18.86v3.07H18.57v1.84h1.84v1.83H18.57V37h3.68v3.68h5.51V37h3.68V35.16H29.59V33.32h1.84V31.49H29.59V28.42A10.1,10.1,0,0,0,22.84,9.56Zm3.09,29.28H24.08V37h1.84Zm1.84-3.68H22.25V33.32h5.51ZM28.31,27l-.55.24v4.26H22.25V27.23L21.69,27a8.26,8.26,0,1,1,6.61,0Z"/><path class="cls-4" d="M27.55,15.41l-1.42-1.15-4.87,6.08h3.66l-2.48,3.1,1.42,1.15,4.87-6.08H25.07Z"/></svg>