<svg id="Layer_1" data-name="Layer 1" xmlns="http://www.w3.org/2000/svg" viewBox="0 0 50 64.49"><defs><style>.cls-1{fill:#e52525;}.cls-2{fill:#a8111c;}.cls-3{fill:#fff;}.cls-4{fill:#f99d0b;}</style></defs><title>listrik</title><path class="cls-1" d="M25,31.35H15.09s1,4,2.28,8.14c2.13,6.86,7.62,25,7.62,25s5.5-18.15,7.62-25c1.27-4.09,2.28-8.14,2.28-8.14Z"/><path class="cls-1" d="M25,0A25,25,0,1,0,50,25,25,25,0,0,0,25,0Z"/><path class="cls-2" d="M25,3A22,22,0,1,0,47,25,22,22,0,0,0,25,3Z"/><circle class="cls-3" cx="25" cy="25" r="22"/><path class="cls-4" d="M34.65,19.61a.57.57,0,0,0-.52-.33H27.38L34,8.75a.57.57,0,0,0-.48-.87H24.44a.57.57,0,0,0-.51.31l-8.56,17.1a.57.57,0,0,0,.51.82h5.86L15.35,41.3a.57.57,0,0,0,1,.59L34.57,20.21A.57.57,0,0,0,34.65,19.61Z"/></svg>