<svg id="Layer_1" data-name="Layer 1" xmlns="http://www.w3.org/2000/svg" xmlns:xlink="http://www.w3.org/1999/xlink" viewBox="0 0 50 64.49"><defs><style>.cls-1{fill:none;}.cls-2{fill:#e52525;}.cls-3{fill:#a8111c;}.cls-4{fill:#fff;}.cls-5{clip-path:url(#clip-path);}.cls-6{fill:#49618c;}.cls-7{fill:#3b4773;}.cls-8{fill:#52bed3;}.cls-9{fill:#e6e6e6;}.cls-10{fill:#ccc;}</style><clipPath id="clip-path"><circle id="SVGID" class="cls-1" cx="25" cy="25" r="20.32"/></clipPath></defs><title>road</title><path class="cls-2" d="M25,31.35H15.09s1,4,2.28,8.14c2.13,6.86,7.62,25,7.62,25s5.5-18.15,7.62-25c1.27-4.09,2.28-8.14,2.28-8.14Z"/><path class="cls-2" d="M25,0A25,25,0,1,0,50,25,25,25,0,0,0,25,0Z"/><path class="cls-3" d="M25,3A22,22,0,1,0,47,25,22,22,0,0,0,25,3Z"/><circle class="cls-4" cx="25" cy="25" r="22"/><g class="cls-5"><polygon class="cls-6" points="46.06 45.58 3.94 45.58 12.38 3.7 12.8 1.58 37.2 1.58 46.06 45.58"/><path class="cls-7" d="M33.44,45.58H4L12.69,3.71l1,.71S11.27,34.06,33.44,45.58Z"/><polyline class="cls-8" points="43.76 45.58 35.87 1.58 37.58 1.58 46.72 45.58"/><polyline class="cls-8" points="6.24 45.58 14.13 1.58 12.42 1.58 3.28 45.58"/><polygon class="cls-9" points="23.62 12.15 23.5 18.61 26.5 18.61 26.38 12.15 23.62 12.15"/><polygon class="cls-9" points="27.02 45.58 22.98 45.58 23.14 37.22 23.23 32.4 26.77 32.4 26.94 41.15 27.02 45.58"/><polygon class="cls-9" points="26.22 4.3 23.78 4.3 23.83 1.58 26.17 1.58 26.22 4.3"/><polygon class="cls-9" points="26.33 10.13 23.67 10.13 23.74 5.92 26.26 5.92 26.33 10.13"/><polygon class="cls-9" points="26.7 29.24 26.55 21.03 23.45 21.03 23.3 29.24 26.7 29.24"/><path class="cls-10" d="M27,45.58H23l.16-8.36a32.86,32.86,0,0,0,3.8,3.93Z"/></g></svg>