<svg id="Layer_1" data-name="Layer 1" xmlns="http://www.w3.org/2000/svg" viewBox="0 0 50 64.49"><defs><style>.cls-1{fill:#e52525;}.cls-2{fill:#a8111c;}.cls-3{fill:#fff;}.cls-4{fill:#282828;}.cls-5{fill:#f41414;}.cls-6{fill:#f9c900;}.cls-7{fill:#4ed300;}</style></defs><title>traffic-light</title><path class="cls-1" d="M25,31.35H15.09s1,4,2.28,8.14c2.13,6.86,7.62,25,7.62,25s5.5-18.15,7.62-25c1.27-4.09,2.28-8.14,2.28-8.14Z"/><path class="cls-1" d="M25,0A25,25,0,1,0,50,25,25,25,0,0,0,25,0Z"/><path class="cls-2" d="M25,3A22,22,0,1,0,47,25,22,22,0,0,0,25,3Z"/><circle class="cls-3" cx="25" cy="25" r="22"/><path class="cls-4" d="M17.85,31.79H14.07a.56.56,0,0,0-.56.56s0,0,0,0c.13,1.9,3.84,5.34,4.71,6.13a.56.56,0,0,1,.18.42v.34a2.36,2.36,0,0,0,2.33,2.36h8.52a2.36,2.36,0,0,0,2.36-2.36v-.34a.56.56,0,0,1,.18-.42c.88-.79,4.58-4.26,4.71-6.13a.56.56,0,0,0-.53-.59H32.15a.56.56,0,0,1-.56-.56h0V28.7a.56.56,0,0,1,.18-.42c.88-.79,4.58-4.26,4.71-6.13a.56.56,0,0,0-.53-.59h-3.8a.56.56,0,0,1-.56-.56h0V18.46a.56.56,0,0,1,.18-.42c.88-.79,4.58-4.26,4.71-6.13a.56.56,0,0,0-.53-.59h-3.8a.56.56,0,0,1-.56-.56h0a2.36,2.36,0,0,0-2.32-2.39H20.74a2.36,2.36,0,0,0-2.36,2.36h0a.56.56,0,0,1-.56.56H14.07a.56.56,0,0,0-.56.56s0,0,0,0c.13,1.9,3.84,5.34,4.71,6.13a.56.56,0,0,1,.18.42V21a.56.56,0,0,1-.56.56H14.07a.56.56,0,0,0-.56.56s0,0,0,0c.13,1.9,3.84,5.34,4.71,6.13a.56.56,0,0,1,.18.42V31.2a.56.56,0,0,1-.52.6Z"/><circle class="cls-5" cx="25.02" cy="14.91" r="3.7"/><circle class="cls-6" cx="25.02" cy="25.02" r="3.7"/><circle class="cls-7" cx="25.02" cy="35.13" r="3.7"/></svg>