<svg id="Layer_1" data-name="Layer 1" xmlns="http://www.w3.org/2000/svg" viewBox="0 0 62 62"><defs><style>.cls-1{fill:#fff;}.cls-2{fill:#384d66;}</style></defs><title>guardrail</title><circle class="cls-1" cx="31" cy="31" r="31"/><path class="cls-2" d="M54,42.13V17.87a5.4,5.4,0,0,0-5.39-5.39H13.39A5.4,5.4,0,0,0,8,17.87V42.13h6.78v2.7H8v2.7H24.26v-2.7H17.48v-2.7h27v2.7H37.74v2.7H54v-2.7H47.22v-2.7ZM10.7,17.87a2.7,2.7,0,0,1,2.7-2.7H48.61a2.7,2.7,0,0,1,2.7,2.7v1.39H10.7ZM44.52,22V32.65h-2.7V22ZM32.35,22V32.65h-2.7V22ZM20.17,22V32.65h-2.7V22ZM10.7,39.43V22h4.09V35.35h8.09V22H27V35.35H35V22h4.09V35.35h8.09V22H51.3V39.43Z"/></svg>