<svg id="Layer_1" data-name="Layer 1" xmlns="http://www.w3.org/2000/svg" viewBox="0 0 62 62"><defs><style>.cls-1{fill:#fff;}.cls-2{fill:#005dba;}.cls-3{fill:#f9d315;}.cls-4,.cls-5{fill:#ea2424;}.cls-5{font-size:6.13px;font-family:MyriadPro-Bold, Myriad Pro;font-weight:700;}.cls-6{letter-spacing:-0.1em;}</style></defs><title>halte</title><circle class="cls-1" cx="31" cy="31" r="31"/><g id="_006---Bus-Stop" data-name="006---Bus-Stop"><path id="Shape" class="cls-2" d="M52.9,16.64H42.36V8.1a2.43,2.43,0,0,0-2.43-2.43H22.08A2.43,2.43,0,0,0,19.64,8.1v8.54H9.1a2.43,2.43,0,0,0,0,4.87h.81V49.9a2.43,2.43,0,0,0,2.43,2.43h.81a2.43,2.43,0,0,0,2.43-2.43v-.81H46.41v.81a2.43,2.43,0,0,0,2.43,2.43h.81a2.43,2.43,0,0,0,2.43-2.43V21.51h.81a2.43,2.43,0,0,0,0-4.87ZM21.27,8.1a.81.81,0,0,1,.81-.81H39.92a.81.81,0,0,1,.81.81v8.54H21.27Zm14.6,37.74v1.62H26.13V45.84ZM33,32.87l.24-.24A.81.81,0,0,0,32,31.48l-1.38,1.38H27.76a4,4,0,0,0-1.62.34V26.38h9.73v6.49ZM15.59,26.38h8.92v8.14a4,4,0,0,0-.81,2.41v4.2a2.43,2.43,0,0,0,.81,4.72v1.62H15.59Zm21.9,21.09V45.84h5.68A2.43,2.43,0,0,0,44,41.13v-4.2a4,4,0,0,0-1-2.68l1.61-1.61a.81.81,0,0,0-1.15-1.15l-1.77,1.77a4,4,0,0,0-1.71-.39H37.49V26.38h8.92V47.47Z"/><path id="Shape-2" data-name="Shape" class="cls-2" d="M18,32.06a.81.81,0,0,0,.57-.24L21,29.38a.81.81,0,0,0-1.15-1.15l-2.43,2.43A.81.81,0,0,0,18,32.06Z"/><path id="Shape-3" data-name="Shape" class="cls-2" d="M30.43,28.24,28,30.67a.81.81,0,1,0,1.15,1.15l2.43-2.43a.81.81,0,0,0-1.15-1.15Z"/><path id="Shape-4" data-name="Shape" class="cls-2" d="M41.78,28.24l-2.43,2.43a.81.81,0,1,0,1.15,1.15l2.43-2.43a.81.81,0,0,0-1.15-1.15Z"/><path id="Shape-5" data-name="Shape" class="cls-2" d="M22.65,31.48a.81.81,0,0,0-1.15,0l-4.06,4.06a.81.81,0,1,0,1.15,1.15l4.06-4.06A.81.81,0,0,0,22.65,31.48Z"/></g><rect class="cls-3" x="15.59" y="21.51" width="30.82" height="3.24"/><path class="cls-3" d="M14,49.9a.81.81,0,0,1-.81.81h-.81a.81.81,0,0,1-.81-.81V21.51H14Z"/><path class="cls-3" d="M50.47,49.9a.81.81,0,0,1-.81.81h-.81A.81.81,0,0,1,48,49.9V21.51h2.43Z"/><path class="cls-4" d="M42.36,36.92V41h-17V36.92a2.43,2.43,0,0,1,2.43-2.43H39.92A2.43,2.43,0,0,1,42.36,36.92Z"/><path class="cls-3" d="M24.51,44.22a.81.81,0,0,1,0-1.62H43.17a.81.81,0,0,1,0,1.62Z"/><path class="cls-3" d="M52.9,19.89H9.1a.81.81,0,1,1,0-1.62H52.9a.81.81,0,0,1,0,1.62Z"/><text class="cls-5" transform="translate(22.31 14.15)">HA<tspan class="cls-6" x="8.25" y="0">L</tspan><tspan x="10.74" y="0">TE</tspan></text></svg>