<svg id="Layer_1" data-name="Layer 1" xmlns="http://www.w3.org/2000/svg" viewBox="0 0 62 62"><defs><style>.cls-1{fill:#fff;}.cls-2{fill:#ffc306;}.cls-3{fill:#3a3a3a;}</style></defs><title>lampu</title><circle class="cls-1" cx="31" cy="31" r="31"/><path class="cls-2" d="M47.82,22.94h5.26v2.59H47.82Z"/><path class="cls-2" d="M8.92,22.94h5.26v2.59H8.92Z"/><path class="cls-2" d="M50.7,34.11,49.4,36.35l-4.48-2.59,1.29-2.24Z"/><path class="cls-2" d="M15.79,16.94,11.3,14.35l1.29-2.24,4.48,2.59Z"/><path class="cls-2" d="M44.92,14.7l4.48-2.59,1.29,2.24-4.48,2.59Z"/><path class="cls-2" d="M12.6,36.35,11.3,34.11l4.48-2.59,1.29,2.24Z"/><path class="cls-3" d="M27.95,10.32A14.23,14.23,0,0,0,24.53,36.9v4.33H21.94v2.59h2.59V46.4H21.94V49h5.18v5.18h7.76V49h5.18V46.4H37.47V43.81h2.59V41.23H37.47V36.9a14.23,14.23,0,0,0-9.52-26.58Zm4.35,41.26H29.71V49h2.59Zm2.59-5.18H27.12V43.81h7.76Zm.78-11.51-.78.34v6H27.12v-6l-.78-.34a11.69,11.69,0,0,1-6.81-12.74A11.65,11.65,0,1,1,35.66,34.89Z"/><path class="cls-2" d="M34.6,18.57l-2-1.62-6.86,8.57H30.9L27.4,29.89l2,1.62,6.86-8.57H31.1Z"/></svg>