<svg id="Layer_1" data-name="Layer 1" xmlns="http://www.w3.org/2000/svg" viewBox="0 0 62 62"><defs><style>.cls-1{fill:#fff;}.cls-2{fill:#ffd400;}</style></defs><title>rambuu</title><circle class="cls-1" cx="31" cy="31" r="31"/><path class="cls-2" d="M53.88,41.56,33.44,7.67a2.85,2.85,0,0,0-4.89,0L8.12,41.56a2.85,2.85,0,0,0,2.44,4.33H51.44a2.85,2.85,0,0,0,2.44-4.33Z"/><path d="M51.44,47.35H10.56a4.31,4.31,0,0,1-3.69-6.53L27.31,6.92a4.31,4.31,0,0,1,7.38,0L55.13,40.81a4.31,4.31,0,0,1-3.69,6.53ZM31,7.74a1.41,1.41,0,0,0-1.2.68L9.36,42.31a1.4,1.4,0,0,0,1.2,2.12H51.44a1.4,1.4,0,0,0,1.2-2.12L32.2,8.42A1.41,1.41,0,0,0,31,7.74Z"/><path d="M31,18a1.93,1.93,0,0,1,2.17,1.84c0,3.58-.42,8.73-.42,12.31,0,.93-1,1.32-1.75,1.32-1,0-1.78-.39-1.78-1.32,0-3.58-.42-8.73-.42-12.31C28.82,18.67,29.78,18,31,18Z"/><path d="M31,40.19a2.32,2.32,0,1,1,2.29-2.32A2.35,2.35,0,0,1,31,40.19Z"/></svg>