<svg id="Layer_1" data-name="Layer 1" xmlns="http://www.w3.org/2000/svg" xmlns:xlink="http://www.w3.org/1999/xlink" viewBox="0 0 62 64"><defs><style>.cls-1{fill:none;}.cls-2{fill:#fff;}.cls-3{clip-path:url(#clip-path);}.cls-4{fill:#49618c;}.cls-5{fill:#3b4773;}.cls-6{fill:#52bed3;}.cls-7{fill:#e6e6e6;}.cls-8{fill:#ccc;}</style><clipPath id="clip-path" transform="translate(0 2)"><circle class="cls-1" cx="31" cy="31" r="28.63"/></clipPath></defs><title>road</title><circle class="cls-2" cx="31" cy="33" r="31"/><g class="cls-3"><polygon class="cls-4" points="60.67 62 1.33 62 13.21 2.99 13.81 0 48.19 0 60.67 62"/><path class="cls-5" d="M42.89,60H1.4L13.65,1,15,2S11.66,43.77,42.89,60Z" transform="translate(0 2)"/><polyline class="cls-6" points="57.43 62 46.31 0 48.73 0 61.6 62"/><polyline class="cls-6" points="4.57 62 15.69 0 13.27 0 0.4 62"/><polygon class="cls-7" points="29.06 14.89 28.89 23.99 33.11 23.99 32.94 14.89 29.06 14.89"/><polygon class="cls-7" points="33.85 62 28.15 62 28.38 50.22 28.51 43.42 33.49 43.42 33.73 55.75 33.85 62"/><polygon class="cls-7" points="32.72 3.83 29.28 3.83 29.35 0 32.65 0 32.72 3.83"/><polygon class="cls-7" points="32.88 12.04 29.12 12.04 29.23 6.11 32.77 6.11 32.88 12.04"/><polygon class="cls-7" points="33.4 38.98 33.18 27.4 28.82 27.4 28.6 38.98 33.4 38.98"/><path class="cls-8" d="M33.85,60H28.15l.23-11.78a46.3,46.3,0,0,0,5.35,5.54Z" transform="translate(0 2)"/></g></svg>