<svg id="Layer_1" data-name="Layer 1" xmlns="http://www.w3.org/2000/svg" viewBox="0 0 62 62"><defs><style>.cls-1{fill:#fff;}.cls-2{fill:#282828;}.cls-3{fill:#f41414;}.cls-4{fill:#f9c900;}.cls-5{fill:#4ed300;}</style></defs><title>traffic-light</title><circle class="cls-1" cx="31" cy="31" r="31"/><path class="cls-2" d="M20.92,40.57H15.6a.79.79,0,0,0-.79.83c.19,2.68,5.41,7.53,6.64,8.64a.79.79,0,0,1,.26.59v.48A3.32,3.32,0,0,0,25,54.43H37a3.32,3.32,0,0,0,3.32-3.32v-.48a.79.79,0,0,1,.26-.59c1.24-1.11,6.45-6,6.64-8.64a.79.79,0,0,0-.79-.83H41.08a.79.79,0,0,1-.79-.79V36.21a.79.79,0,0,1,.26-.59c1.24-1.11,6.45-6,6.64-8.64a.79.79,0,0,0-.79-.83H41.08a.79.79,0,0,1-.79-.79V21.79a.79.79,0,0,1,.26-.59c1.24-1.11,6.45-6,6.64-8.64a.79.79,0,0,0-.79-.83H41.08a.79.79,0,0,1-.79-.79v0A3.32,3.32,0,0,0,37,7.57H25a3.32,3.32,0,0,0-3.32,3.32v0a.79.79,0,0,1-.79.79H15.6a.79.79,0,0,0-.79.83c.19,2.68,5.41,7.53,6.64,8.64a.79.79,0,0,1,.26.59v3.57a.79.79,0,0,1-.79.79H15.6a.79.79,0,0,0-.79.83c.19,2.68,5.41,7.53,6.64,8.64a.79.79,0,0,1,.26.59v3.57A.79.79,0,0,1,20.92,40.57Z"/><circle class="cls-3" cx="31.03" cy="16.78" r="5.21"/><circle class="cls-4" cx="31.03" cy="31.03" r="5.21"/><circle class="cls-5" cx="31.03" cy="45.28" r="5.21"/></svg>